<svg width="1869" height="1321" viewBox="0 0 1869 1321" fill="none" xmlns="http://www.w3.org/2000/svg">
<rect width="1869" height="1321" fill="#1E1E1E"/>
<path opacity="0.5" d="M534.343 132.694C414.405 233.217 395.819 423.298 314.589 563.527C286.312 612.322 249.775 655.992 230.712 710.123C186.946 834.026 247.18 974.572 327.801 1072.98C366.245 1119.93 411.149 1162.94 465.478 1182.72C507.258 1197.94 552.056 1198.57 596.033 1198.97L1366.5 1206.9C1452.52 1207.77 1548.1 1204.62 1609.95 1138.21C1652.57 1092.48 1669.89 1025.69 1684.58 961.944C1702.64 883.613 1719 798.546 1690.91 723.94C1658.82 638.582 1577.67 590.21 1527.26 516.555C1445.45 397.223 1447.33 216.731 1343.14 121.466C1294.51 77.0041 1230.33 59.5679 1167.79 50.8498C1049.89 34.3911 938.215 65.4592 822.433 61.1266C723.464 57.428 616.447 63.8741 534.343 132.694Z" fill="#E7ECFF"/>
<path opacity="0.24" d="M674.709 944.613C628.26 949.283 580.386 954.419 539.512 977.264C534.042 980.328 528.487 983.942 525.469 989.458C519.411 1000.55 526.286 1015.18 536.955 1021.86C547.624 1028.53 560.788 1029.29 573.343 1029.84C796.91 1039.59 1020.81 1035.76 1244.57 1031.96C1309.55 1030.86 1375.55 1029.59 1437.83 1010.72C1449.02 1007.34 1461.32 1002.26 1465.54 991.212C1471.05 976.757 1458.47 960.737 1443.8 956.236C1429.13 951.735 1413.47 955.095 1398.29 957.06C1345.6 963.886 1292.44 953.446 1239.98 945.099C1137.27 928.784 1030.71 915.512 926.678 913.039C891.212 912.215 860.924 924.515 826.213 929.376C776.096 936.434 725.099 939.541 674.709 944.613Z" fill="#505F98"/>
<path d="M492 511.326L607.83 275.408L676.816 309.19L560.986 545.108L492 511.326Z" fill="white"/>
<path d="M518.845 504.055L532.959 475.22L579.423 497.903L565.309 526.738L518.845 504.055Z" fill="#505F98"/>
<path d="M518.845 504.055L532.959 475.22L579.423 497.903L565.309 526.738L518.845 504.055Z" fill="url(#paint0_linear_0_1)"/>
<path d="M532.961 475.445L547.074 446.61L593.538 469.293L579.425 498.128L532.961 475.445Z" fill="#505F98"/>
<path d="M532.961 475.445L547.074 446.61L593.538 469.293L579.425 498.128L532.961 475.445Z" fill="url(#paint1_linear_0_1)"/>
<path d="M547.057 446.826L561.171 417.991L607.635 440.674L593.521 469.509L547.057 446.826Z" fill="#505F98"/>
<path d="M547.057 446.826L561.171 417.991L607.635 440.674L593.521 469.509L547.057 446.826Z" fill="url(#paint2_linear_0_1)"/>
<path d="M561.194 418.237L575.307 389.402L621.771 412.085L607.658 440.92L561.194 418.237Z" fill="#505F98"/>
<path d="M561.194 418.237L575.307 389.402L621.771 412.085L607.658 440.92L561.194 418.237Z" fill="url(#paint3_linear_0_1)"/>
<path d="M575.3 389.599L589.413 360.764L635.877 383.447L621.764 412.282L575.3 389.599Z" fill="#505F98"/>
<path d="M589.415 361.01L603.529 332.175L649.993 354.858L635.879 383.693L589.415 361.01Z" fill="#505F98"/>
<path d="M603.512 332.391L617.625 303.556L664.089 326.239L649.976 355.074L603.512 332.391Z" fill="#505F98"/>
<path d="M587.827 364.598L601.941 335.763L648.405 358.446L634.291 387.281L587.827 364.598Z" fill="url(#paint4_linear_0_1)"/>
<path d="M601.952 335.97L616.065 307.135L662.53 329.817L648.416 358.652L601.952 335.97Z" fill="url(#paint5_linear_0_1)"/>
<rect x="902.468" y="829" width="98.0679" height="82" fill="#505F98"/>
<rect x="902.468" y="829" width="98.0679" height="82" fill="url(#paint6_linear_0_1)"/>
<rect x="694.324" y="487" width="518.359" height="355" rx="9.37" fill="#505F98"/>
<path opacity="0.65" d="M1195.67 516.438V810.562C1195.69 815.443 1193.76 820.129 1190.32 823.588C1186.88 827.047 1182.21 828.994 1177.33 829H725.671C720.796 828.989 716.126 827.04 712.687 823.582C709.248 820.125 707.322 815.441 707.333 810.562V516.438C707.322 511.559 709.248 506.875 712.687 503.418C716.126 499.96 720.796 498.011 725.671 498H1177.33C1182.21 498.006 1186.88 499.953 1190.32 503.412C1193.76 506.871 1195.69 511.557 1195.67 516.438Z" fill="url(#paint7_linear_0_1)"/>
<rect x="857.437" y="901" width="206.143" height="21" fill="#505F98"/>
<rect x="902.468" y="889" width="98.0679" height="12" fill="url(#paint8_linear_0_1)"/>
<path fill-rule="evenodd" clip-rule="evenodd" d="M1057.58 315.241V335.715L1044.87 335.819C1043.63 345.346 1040.01 354.41 1034.33 362.181L1045.18 373.351L1030.3 387.6L1019.62 376.578C1013.03 381.062 1005.59 384.17 997.761 385.714V399H977.19V386.029C968.406 384.76 960.033 381.497 952.72 376.494L943.784 385.316L929.22 370.647L938.093 361.993C932.507 354.219 928.944 345.191 927.724 335.715H913.476V315.241H928.23C930.059 307.093 933.655 299.441 938.768 292.819L930.527 284.332L945.407 270.082L953.838 278.82C960.808 274.214 968.732 271.228 977.022 270.082V256H997.592V270.396C1005.96 272.055 1013.87 275.493 1020.78 280.476L1031.31 270.166L1045.79 284.709L1035.26 295.187C1039.39 301.267 1042.32 308.073 1043.9 315.241H1057.58ZM951.435 328.15C951.412 347.211 966.934 362.682 986.106 362.705C995.317 362.733 1004.16 359.113 1010.68 352.644C1017.2 346.176 1020.87 337.392 1020.86 328.233C1020.88 309.172 1005.36 293.701 986.19 293.678C967.018 293.655 951.458 309.088 951.435 328.15Z" fill="#505F98"/>
<path fill-rule="evenodd" clip-rule="evenodd" d="M1133.63 349.354L1132.71 361.396L1125.2 360.938C1124.07 366.475 1121.57 371.641 1117.91 375.958L1123.78 383.021L1114.43 390.729L1108.67 383.792C1104.62 386.13 1100.13 387.625 1095.48 388.188L1094.88 396L1082.84 395.104L1083.42 387.479C1078.33 386.344 1073.58 384.056 1069.52 380.792L1063.89 385.583L1056.02 376.396L1061.59 371.688C1058.66 366.876 1056.98 361.414 1056.69 355.792L1048.57 355.167L1049.47 343.146L1058.09 343.792C1059.51 339.085 1061.94 334.743 1065.2 331.062L1060.76 325.708L1070.11 318L1074.63 323.5C1078.91 321.095 1083.66 319.672 1088.55 319.333L1089.18 311L1101.22 311.896L1100.57 320.375C1105.38 321.714 1109.84 324.081 1113.64 327.312L1120.25 321.708L1128.1 330.896L1121.42 336.583C1123.59 340.339 1125 344.477 1125.59 348.771L1133.63 349.354ZM1070.93 352.243C1070.08 363.436 1078.47 373.203 1089.68 374.062C1095.07 374.487 1100.42 372.747 1104.52 369.228C1108.63 365.708 1111.16 360.7 1111.55 355.312C1112.39 344.119 1103.99 334.361 1092.78 333.514C1081.57 332.666 1071.79 341.05 1070.93 352.243Z" fill="#505F98"/>
<path d="M1287.74 462.966V946.819C1287.7 956.846 1279.65 964.966 1269.72 965H1267.64C1257.72 964.954 1249.71 956.827 1249.71 946.819V462.966L1267.79 415L1287.74 462.966Z" fill="#505F98"/>
<rect x="1266.72" y="463" width="21.0146" height="463" fill="url(#paint9_linear_0_1)"/>
<path opacity="0.65" d="M1287.74 463L1249.71 462.269L1261.43 430.204L1267.71 413L1274.61 430.204L1287.74 463Z" fill="url(#paint10_linear_0_1)"/>
<path d="M1274.73 431H1261.72L1267.92 414L1274.73 431Z" fill="url(#paint11_linear_0_1)"/>
<rect x="1247.71" y="919" width="40.0277" height="17" fill="url(#paint12_linear_0_1)"/>
<path d="M1287.74 932V947.38C1287.7 957.649 1279.65 965.965 1269.72 966H1267.64C1257.72 965.953 1249.71 957.63 1249.71 947.38V932H1287.74Z" fill="url(#paint13_linear_0_1)"/>
<path d="M1195.67 516.513V523H707.333V516.513C707.322 511.614 709.248 506.912 712.687 503.44C716.126 499.968 720.797 498.011 725.672 498H1177.33C1182.21 498.006 1186.88 499.961 1190.32 503.434C1193.76 506.907 1195.69 511.613 1195.67 516.513Z" fill="url(#paint14_linear_0_1)"/>
<rect x="717.34" y="555" width="47.0326" height="227" fill="url(#paint15_linear_0_1)"/>
<rect x="835.422" y="571" width="221.153" height="209" fill="url(#paint16_linear_0_1)"/>
<rect x="886.457" y="669" width="7.00485" height="9" fill="url(#paint17_linear_0_1)"/>
<rect x="886.457" y="627" width="7.00485" height="9" fill="url(#paint18_linear_0_1)"/>
<rect x="791.391" y="669" width="7.00485" height="9" fill="url(#paint19_linear_0_1)"/>
<rect x="791.391" y="627" width="7.00485" height="9" fill="url(#paint20_linear_0_1)"/>
<rect x="886.457" y="582" width="7.00485" height="9" fill="url(#paint21_linear_0_1)"/>
<rect x="792.392" y="582" width="7.00485" height="9" fill="url(#paint22_linear_0_1)"/>
<rect x="840.425" y="582" width="7.00485" height="9" fill="url(#paint23_linear_0_1)"/>
<rect x="840.425" y="669" width="7.00485" height="9" fill="url(#paint24_linear_0_1)"/>
<path fill-rule="evenodd" clip-rule="evenodd" d="M804.401 667H882.455V594H804.401V667ZM874.593 659.282H812.263V601.656H874.593V659.282Z" fill="#505F98"/>
<path fill-rule="evenodd" clip-rule="evenodd" d="M804.401 667H882.455V594H804.401V667ZM874.593 659.282H812.263V601.656H874.593V659.282Z" fill="url(#paint25_linear_0_1)"/>
<rect x="1088.6" y="535" width="100.069" height="100" fill="url(#paint26_linear_0_1)"/>
<rect x="1088.6" y="645" width="100.069" height="100" fill="url(#paint27_linear_0_1)"/>
<rect opacity="0.65" x="717.34" y="554" width="47.0326" height="13" fill="url(#paint28_linear_0_1)"/>
<path d="M514.304 485.827L719.433 321.293L767.545 381.118L562.416 545.652L514.304 485.827Z" fill="white"/>
<path d="M543.028 490.455L568.095 470.235L600.678 510.522L575.61 530.742L543.028 490.455Z" fill="#505F98"/>
<path d="M543.028 490.455L568.095 470.235L600.678 510.522L575.61 530.742L543.028 490.455Z" fill="url(#paint29_linear_0_1)"/>
<path d="M566.646 470.689L591.678 450.56L624.113 490.79L599.081 510.919L566.646 470.689Z" fill="#505F98"/>
<path d="M566.646 470.689L591.678 450.56L624.113 490.79L599.081 510.919L566.646 470.689Z" fill="url(#paint30_linear_0_1)"/>
<path d="M591.59 450.761L616.622 430.633L649.057 470.863L624.024 490.991L591.59 450.761Z" fill="#505F98"/>
<path d="M591.59 450.761L616.622 430.633L649.057 470.863L624.024 490.991L591.59 450.761Z" fill="url(#paint31_linear_0_1)"/>
<path d="M616.517 430.847L641.549 410.718L673.984 450.948L648.952 471.077L616.517 430.847Z" fill="#505F98"/>
<path d="M616.517 430.847L641.549 410.718L673.984 450.948L648.952 471.077L616.517 430.847Z" fill="url(#paint32_linear_0_1)"/>
<path d="M642.637 410.389L667.705 390.169L700.287 430.456L675.22 450.676L642.637 410.389Z" fill="#505F98"/>
<path d="M667.717 389.99L692.785 369.77L725.367 410.057L700.3 430.277L667.717 389.99Z" fill="#505F98"/>
<path d="M691.325 371.051L716.357 350.923L748.792 391.153L723.76 411.281L691.325 371.051Z" fill="#505F98"/>
<path d="M721.343 414.218L700.244 431L668.306 390.782L689.405 374L721.343 414.218Z" fill="url(#paint33_linear_0_1)"/>
<path d="M688.368 373.648L713.4 353.519L745.835 393.749L720.802 413.878L688.368 373.648Z" fill="url(#paint34_linear_0_1)"/>
<path d="M637.285 495.15V618H616.27V495.15C616.27 490.61 619.089 486.57 623.289 485.089V472.825C623.289 470.712 624.964 469 627.032 469C629.099 469 630.775 470.712 630.775 472.825V485.297C634.694 486.935 637.263 490.823 637.285 495.15Z" fill="#505F98"/>
<path d="M637.285 495.15V618H616.27V495.15C616.27 490.61 619.089 486.57 623.289 485.089V472.825C623.289 470.712 624.964 469 627.032 469C629.099 469 630.775 470.712 630.775 472.825V485.297C634.694 486.935 637.263 490.823 637.285 495.15Z" fill="url(#paint35_linear_0_1)"/>
<rect x="603.261" y="573" width="50.0346" height="9" rx="2.245" fill="#505F98"/>
<path d="M627.967 655C619.394 655 612.267 642.185 612.267 633.634V577H643.289V633.634C643.289 642.185 636.519 655 627.967 655Z" fill="#505F98"/>
<rect x="603.261" y="573" width="50.0346" height="9" rx="2.245" fill="url(#paint36_linear_0_1)"/>
<path d="M627.967 655C619.394 655 612.267 642.366 612.267 633.937V582H643.289V633.937C643.289 642.366 636.519 655 627.967 655Z" fill="url(#paint37_linear_0_1)"/>
<path d="M828.059 715C827.386 711.436 826.96 706.39 828.254 706.043C830.982 705.275 828.059 715 828.059 715Z" fill="#28353D"/>
<path d="M971.318 910.507C970.832 923.102 961.07 969.388 960.753 982.004C960.753 986.202 961.873 992.647 960.52 996.698C957.731 1005.28 947.842 1004.11 946.553 999.049L946.067 996.53C941.482 972.012 948.856 944.198 946.067 912.186C944.398 892.643 936.621 854.963 931.529 854.711C928.845 854.711 867.588 983.851 862.263 991.807C859.643 995.817 852.268 995.187 848.697 998.42C845.126 1001.65 878.449 900.515 892.416 847.07C895.674 836.039 897.798 824.709 898.755 813.252C899.136 806.64 897.002 804.415 903.108 802.463C907.334 801.119 913.188 801.497 917.71 801.182C922.633 800.804 968.423 800.72 968.423 803.953C967.979 821.502 972.501 881.412 971.318 910.507Z" fill="#606161"/>
<path d="M971.318 910.507C970.832 923.102 961.07 969.388 960.753 982.004C960.753 986.202 961.873 992.647 960.52 996.698C957.731 1005.28 947.842 1004.11 946.553 999.049L946.067 996.53C941.482 972.012 948.856 944.198 946.067 912.186C944.398 892.643 936.621 854.963 931.529 854.711C928.845 854.711 867.588 983.851 862.263 991.807C859.643 995.817 852.268 995.187 848.697 998.42C845.126 1001.65 878.449 900.515 892.416 847.07C895.674 836.039 897.798 824.709 898.755 813.252C899.136 806.64 897.002 804.415 903.108 802.463C907.334 801.119 913.188 801.497 917.71 801.182C922.633 800.804 968.423 800.72 968.423 803.953C967.979 821.502 972.501 881.412 971.318 910.507Z" fill="url(#paint38_linear_0_1)"/>
<path d="M917.245 642.148C916.86 638.163 914.977 636 913.137 636C911.298 636 910.164 638.12 910.549 642.148C910.636 645.122 912.88 647.597 915.854 648C917.716 648 917.651 646.134 917.245 642.148Z" fill="#FFCD9C"/>
<path d="M949.639 642.159C949.889 638.166 951.726 636 953.625 636C955.524 636 956.755 638.124 956.463 642.159C956.437 645.173 954.191 647.687 951.246 648C949.368 648 949.347 646.152 949.639 642.159Z" fill="#FFCD9C"/>
<path d="M953.363 659.672C953.104 661.777 944.189 671 934.044 671C923.899 671 915.523 662.577 913.753 659.208C911.983 655.839 919.107 612.505 923.23 608.884C927.352 605.262 944.06 607.641 945.463 609.558C948.83 614.085 954.464 651.27 953.363 659.672Z" fill="#F4AD7D"/>
<path d="M949.169 626.977C947.79 627.639 942.375 613.842 941.239 611.525C940.103 609.208 940.285 606.829 941.665 606.167C943.044 605.505 945.072 606.871 946.208 609.167C947.344 611.463 950.528 626.336 949.169 626.977Z" fill="#FFCD9C"/>
<path d="M918.799 625.987C917.369 625.501 921.156 611.179 921.982 608.703C922.808 606.228 924.662 604.599 926.012 605.086C927.362 605.573 927.926 607.984 927.1 610.481C926.274 612.977 920.149 626.474 918.799 625.987Z" fill="#FFCD9C"/>
<path d="M924.476 658H946.24L949.501 678.622C937.645 685.005 930.732 684.301 921.482 677.214L924.476 658Z" fill="#F4AD7D"/>
<path d="M933.49 662.13C933.49 661.75 934.395 661.43 935.491 661.43C936.587 661.43 937.493 661.75 937.493 662.13C937.493 662.51 936.611 662.57 935.491 662.57C934.371 662.57 933.49 662.53 933.49 662.13Z" fill="#F4AD7D"/>
<path d="M954.523 652.808C955.347 647.894 956.691 612.708 953.396 608.051C950.1 603.394 930.372 600.381 927.38 601.108C920.681 602.731 921.852 607.517 921.852 607.517C919.861 607.547 917.912 608.084 916.194 609.076C913.896 610.615 909.061 632.79 912.92 649.56C914.655 657.102 921.484 663.66 933.277 663.981C947.802 664.365 953.526 658.896 954.523 652.808Z" fill="#606161"/>
<path d="M927.462 602.762C929.021 601.448 931.041 600.828 933.061 601.041C939.194 601.008 945.278 602.14 950.996 604.376C954.166 605.488 957.045 607.311 959.416 609.708C961.803 612.173 962.902 615.627 962.384 619.034C961.331 624.047 956.069 627.148 954.343 631.97C952.954 635.837 953.943 639.575 953.985 643.463C954.013 646.606 953.788 649.746 953.311 652.852C952.343 658.906 946.807 664.344 932.598 663.983C921.147 663.664 914.516 657.143 912.832 649.644C910.552 637.198 911.15 624.389 914.579 612.215C920.751 613.648 927.065 614.361 933.398 614.339C940.113 614.395 946.809 613.611 953.332 612.002C954.448 618.503 954.427 631.524 954.069 641.253" fill="#606161"/>
<path d="M892.333 674.954C888.899 675.241 885.591 676.384 882.708 678.28C877.77 682.171 877.395 689.43 877.479 695.748C877.31 704.501 877.916 713.252 879.291 721.897C880.77 729.826 883.458 737.441 885.666 745.202C889.147 757.831 890.975 770.862 891.104 783.966C891.104 791.162 890.979 799.07 895.458 804.697C900.354 810.806 909.021 811.998 916.813 812.438C927.876 813.086 938.98 813.17 950.043 812.709C957.46 812.375 965.356 811.643 971.231 807.082C975.919 803.442 986.898 680.288 978.377 677.171C969.856 674.054 960.689 673.259 951.647 672.506C931.376 670.791 912.292 669.431 892.333 674.954Z" fill="#505F98"/>
<path d="M956.153 930.291C955.066 944.255 952.474 995 952.474 995L945.869 994.77C941.333 970.39 948.628 942.732 945.869 910.899C944.218 891.465 936.526 853.996 931.489 853.746C932.993 841.221 941.459 843.1 941.459 843.1C947.615 852.294 952.925 862.026 957.323 872.178C962.361 885.37 957.261 916.263 956.153 930.291Z" fill="url(#paint39_linear_0_1)"/>
<path d="M831.796 996.024C830.764 996.786 829.981 997.83 829.544 999.025C829.309 1000.01 829.404 1001.04 829.815 1001.97C830.981 1004.33 833.191 1006.02 835.799 1006.55C838.376 1007.04 841.014 1007.13 843.618 1006.82L851.959 1006.26C854.081 1006.21 856.186 1005.87 858.215 1005.26C860.245 1004.63 861.921 1003.2 862.844 1001.31C863.335 999.916 863.527 998.438 863.407 996.969C863.407 990.164 860.988 984.634 853.44 986.299C845.533 987.765 838.105 991.102 831.796 996.024Z" fill="#505F98"/>
<path d="M970.334 999.063C971.281 999.759 972 1000.71 972.401 1001.8C972.615 1002.68 972.531 1003.61 972.162 1004.45C971.099 1006.58 969.069 1008.11 966.678 1008.58C964.321 1009.04 961.904 1009.12 959.519 1008.83L951.947 1008.33C950.021 1008.28 948.11 1007.98 946.268 1007.43C944.411 1006.86 942.881 1005.57 942.046 1003.85C941.598 1002.59 941.421 1001.26 941.524 999.932C941.524 993.785 943.7 988.72 950.641 990.288C957.837 991.619 964.595 994.63 970.334 999.063Z" fill="#505F98"/>
<path d="M979.522 677C979.522 677 1012.24 696.163 1022.06 720.389C1031.89 744.614 989.883 803 989.883 803L980.895 793.814C980.895 793.814 1002.82 749.759 999.43 738.74C996.04 727.721 982.761 717.452 982.761 717.452L979.522 677Z" fill="#505F98"/>
<path d="M886.457 714.859C886.457 714.859 840.969 735.24 822.484 725.238C803.999 715.237 823.029 665 823.029 665L835.409 669.202C835.409 669.202 825.065 694.815 836.898 698.618C848.732 702.421 884.191 677.438 884.191 677.438L886.457 714.859Z" fill="#505F98"/>
<path d="M972.098 801.976C970.789 802.826 969.729 803.968 969.013 805.297C968.583 806.425 968.428 807.629 968.56 808.819C968.48 811.709 969.795 814.479 972.141 816.367C973.789 817.25 975.636 817.76 977.534 817.857C978.697 818.048 979.887 818.048 981.05 817.857C982.237 817.646 983.228 816.888 983.682 815.844C983.837 815.183 983.903 814.507 983.877 813.831C984.028 810.51 986.53 807.793 988.601 805.076C989.101 804.551 989.424 803.9 989.529 803.204C989.517 802.434 989.228 801.69 988.709 801.091C987.307 799.199 983.833 795.717 981.05 796.018C978.268 796.32 974.255 800.326 972.098 801.976Z" fill="#F4AD7D"/>
<path d="M843.216 657.435C843.809 656.611 844.213 655.679 844.403 654.698C844.554 653.683 844.017 652.687 843.063 652.211C841.547 651.647 839.745 653.13 838.251 652.504C837.745 652.235 837.322 651.846 837.021 651.375C835.256 648.945 834.244 646.093 834.098 643.143C834.184 641.571 834.036 639.995 833.659 638.463C833.215 636.886 831.631 635.849 829.924 636.018C828.518 636.331 827.727 637.689 826.848 638.776C825.969 639.863 824.211 641.158 823.069 642.516C821.118 645.307 820.002 648.55 819.839 651.898C819.224 656.077 818.828 660.861 821.904 663.87C824.277 666.189 831.506 668.927 834.823 667.694C838.493 666.315 841.371 660.444 843.216 657.435Z" fill="#F4AD7D"/>
<defs>
<linearGradient id="paint0_linear_0_1" x1="643.033" y1="571.166" x2="707.787" y2="442.6" gradientUnits="userSpaceOnUse">
<stop stop-color="#010101" stop-opacity="0.01"/>
<stop offset="0.95" stop-color="#010101"/>
</linearGradient>
<linearGradient id="paint1_linear_0_1" x1="698.194" y1="567.365" x2="791.048" y2="385.775" gradientUnits="userSpaceOnUse">
<stop stop-color="#010101" stop-opacity="0.01"/>
<stop offset="0.95" stop-color="#010101"/>
</linearGradient>
<linearGradient id="paint2_linear_0_1" x1="818.176" y1="576.092" x2="955.53" y2="265.948" gradientUnits="userSpaceOnUse">
<stop stop-color="#010101" stop-opacity="0.01"/>
<stop offset="0.95" stop-color="#010101"/>
</linearGradient>
<linearGradient id="paint3_linear_0_1" x1="946.01" y1="592.583" x2="1150.94" y2="145.179" gradientUnits="userSpaceOnUse">
<stop stop-color="#010101" stop-opacity="0.01"/>
<stop offset="0.36" stop-color="#010101" stop-opacity="0.36"/>
<stop offset="0.95" stop-color="#010101"/>
</linearGradient>
<linearGradient id="paint4_linear_0_1" x1="797.357" y1="487.564" x2="914.517" y2="245.969" gradientUnits="userSpaceOnUse">
<stop stop-color="white" stop-opacity="0.01"/>
<stop offset="0.07" stop-color="white" stop-opacity="0.22"/>
<stop offset="0.16" stop-color="white" stop-opacity="0.45"/>
<stop offset="0.25" stop-color="white" stop-opacity="0.65"/>
<stop offset="0.33" stop-color="white" stop-opacity="0.8"/>
<stop offset="0.4" stop-color="white" stop-opacity="0.91"/>
<stop offset="0.46" stop-color="white" stop-opacity="0.98"/>
<stop offset="0.51" stop-color="white"/>
</linearGradient>
<linearGradient id="paint5_linear_0_1" x1="719.281" y1="434.444" x2="783.478" y2="298.555" gradientUnits="userSpaceOnUse">
<stop stop-color="white" stop-opacity="0.01"/>
<stop offset="0.07" stop-color="white" stop-opacity="0.22"/>
<stop offset="0.16" stop-color="white" stop-opacity="0.45"/>
<stop offset="0.25" stop-color="white" stop-opacity="0.65"/>
<stop offset="0.33" stop-color="white" stop-opacity="0.8"/>
<stop offset="0.4" stop-color="white" stop-opacity="0.91"/>
<stop offset="0.46" stop-color="white" stop-opacity="0.98"/>
<stop offset="0.51" stop-color="white"/>
</linearGradient>
<linearGradient id="paint6_linear_0_1" x1="1024.6" y1="897.322" x2="1035.02" y2="770.584" gradientUnits="userSpaceOnUse">
<stop stop-color="#010101" stop-opacity="0.01"/>
<stop offset="0.95" stop-color="#010101"/>
</linearGradient>
<linearGradient id="paint7_linear_0_1" x1="622.89" y1="434.517" x2="620.175" y2="884.071" gradientUnits="userSpaceOnUse">
<stop stop-color="white" stop-opacity="0.01"/>
<stop offset="0.07" stop-color="white" stop-opacity="0.22"/>
<stop offset="0.16" stop-color="white" stop-opacity="0.45"/>
<stop offset="0.25" stop-color="white" stop-opacity="0.65"/>
<stop offset="0.33" stop-color="white" stop-opacity="0.8"/>
<stop offset="0.4" stop-color="white" stop-opacity="0.91"/>
<stop offset="0.46" stop-color="white" stop-opacity="0.98"/>
<stop offset="0.51" stop-color="white"/>
</linearGradient>
<linearGradient id="paint8_linear_0_1" x1="369.236" y1="872.073" x2="369.336" y2="1014.31" gradientUnits="userSpaceOnUse">
<stop stop-color="#010101" stop-opacity="0.01"/>
<stop offset="0.95" stop-color="#010101"/>
</linearGradient>
<linearGradient id="paint9_linear_0_1" x1="1245.73" y1="4065.09" x2="1551.92" y2="4065.14" gradientUnits="userSpaceOnUse">
<stop stop-color="#010101" stop-opacity="0.01"/>
<stop offset="0.95" stop-color="#010101"/>
</linearGradient>
<linearGradient id="paint10_linear_0_1" x1="1255.12" y1="457.349" x2="1285.46" y2="458.669" gradientUnits="userSpaceOnUse">
<stop stop-color="white" stop-opacity="0.01"/>
<stop offset="0.07" stop-color="white" stop-opacity="0.22"/>
<stop offset="0.16" stop-color="white" stop-opacity="0.45"/>
<stop offset="0.25" stop-color="white" stop-opacity="0.65"/>
<stop offset="0.33" stop-color="white" stop-opacity="0.8"/>
<stop offset="0.4" stop-color="white" stop-opacity="0.91"/>
<stop offset="0.46" stop-color="white" stop-opacity="0.98"/>
<stop offset="0.51" stop-color="white"/>
</linearGradient>
<linearGradient id="paint11_linear_0_1" x1="1263.59" y1="429.191" x2="1273.94" y2="429.64" gradientUnits="userSpaceOnUse">
<stop stop-color="#010101" stop-opacity="0.01"/>
<stop offset="0.95" stop-color="#010101"/>
</linearGradient>
<linearGradient id="paint12_linear_0_1" x1="1186.95" y1="899.811" x2="1187.26" y2="967.818" gradientUnits="userSpaceOnUse">
<stop stop-color="#010101" stop-opacity="0.01"/>
<stop offset="0.95" stop-color="#010101"/>
</linearGradient>
<linearGradient id="paint13_linear_0_1" x1="1255.75" y1="890.281" x2="1197.41" y2="962.558" gradientUnits="userSpaceOnUse">
<stop stop-color="#010101" stop-opacity="0.01"/>
<stop offset="0.95" stop-color="#010101"/>
</linearGradient>
<linearGradient id="paint14_linear_0_1" x1="1521.65" y1="617.966" x2="1555.83" y2="210.855" gradientUnits="userSpaceOnUse">
<stop stop-color="white" stop-opacity="0.01"/>
<stop offset="0.07" stop-color="white" stop-opacity="0.22"/>
<stop offset="0.16" stop-color="white" stop-opacity="0.45"/>
<stop offset="0.25" stop-color="white" stop-opacity="0.65"/>
<stop offset="0.33" stop-color="white" stop-opacity="0.8"/>
<stop offset="0.4" stop-color="white" stop-opacity="0.91"/>
<stop offset="0.46" stop-color="white" stop-opacity="0.98"/>
<stop offset="0.51" stop-color="white"/>
</linearGradient>
<linearGradient id="paint15_linear_0_1" x1="694.769" y1="507.87" x2="832.776" y2="876.142" gradientUnits="userSpaceOnUse">
<stop stop-color="white" stop-opacity="0.01"/>
<stop offset="0.07" stop-color="white" stop-opacity="0.22"/>
<stop offset="0.16" stop-color="white" stop-opacity="0.45"/>
<stop offset="0.25" stop-color="white" stop-opacity="0.65"/>
<stop offset="0.33" stop-color="white" stop-opacity="0.8"/>
<stop offset="0.4" stop-color="white" stop-opacity="0.91"/>
<stop offset="0.46" stop-color="white" stop-opacity="0.98"/>
<stop offset="0.51" stop-color="white"/>
</linearGradient>
<linearGradient id="paint16_linear_0_1" x1="798.299" y1="530.99" x2="794.974" y2="813.698" gradientUnits="userSpaceOnUse">
<stop stop-color="white" stop-opacity="0.01"/>
<stop offset="0.07" stop-color="white" stop-opacity="0.22"/>
<stop offset="0.16" stop-color="white" stop-opacity="0.45"/>
<stop offset="0.25" stop-color="white" stop-opacity="0.65"/>
<stop offset="0.33" stop-color="white" stop-opacity="0.8"/>
<stop offset="0.4" stop-color="white" stop-opacity="0.91"/>
<stop offset="0.46" stop-color="white" stop-opacity="0.98"/>
<stop offset="0.51" stop-color="white"/>
</linearGradient>
<linearGradient id="paint17_linear_0_1" x1="1114.13" y1="722.704" x2="1133.32" y2="144.785" gradientUnits="userSpaceOnUse">
<stop stop-color="#010101" stop-opacity="0.01"/>
<stop offset="0.95" stop-color="#010101"/>
</linearGradient>
<linearGradient id="paint18_linear_0_1" x1="1113.28" y1="723.045" x2="1132.47" y2="145.125" gradientUnits="userSpaceOnUse">
<stop stop-color="#010101" stop-opacity="0.01"/>
<stop offset="0.95" stop-color="#010101"/>
</linearGradient>
<linearGradient id="paint19_linear_0_1" x1="1019.1" y1="720.354" x2="1038.32" y2="142.435" gradientUnits="userSpaceOnUse">
<stop stop-color="#010101" stop-opacity="0.01"/>
<stop offset="0.95" stop-color="#010101"/>
</linearGradient>
<linearGradient id="paint20_linear_0_1" x1="1018.25" y1="720.694" x2="1037.47" y2="142.776" gradientUnits="userSpaceOnUse">
<stop stop-color="#010101" stop-opacity="0.01"/>
<stop offset="0.95" stop-color="#010101"/>
</linearGradient>
<linearGradient id="paint21_linear_0_1" x1="1112.34" y1="724.545" x2="1131.56" y2="146.627" gradientUnits="userSpaceOnUse">
<stop stop-color="#010101" stop-opacity="0.01"/>
<stop offset="0.95" stop-color="#010101"/>
</linearGradient>
<linearGradient id="paint22_linear_0_1" x1="1018.31" y1="722.236" x2="1037.5" y2="144.317" gradientUnits="userSpaceOnUse">
<stop stop-color="#010101" stop-opacity="0.01"/>
<stop offset="0.95" stop-color="#010101"/>
</linearGradient>
<linearGradient id="paint23_linear_0_1" x1="1066.3" y1="723.396" x2="1085.52" y2="145.499" gradientUnits="userSpaceOnUse">
<stop stop-color="#010101" stop-opacity="0.01"/>
<stop offset="0.95" stop-color="#010101"/>
</linearGradient>
<linearGradient id="paint24_linear_0_1" x1="1068.12" y1="720.843" x2="1087.34" y2="142.925" gradientUnits="userSpaceOnUse">
<stop stop-color="#010101" stop-opacity="0.01"/>
<stop offset="0.95" stop-color="#010101"/>
</linearGradient>
<linearGradient id="paint25_linear_0_1" x1="723.042" y1="735.399" x2="955.274" y2="952.094" gradientUnits="userSpaceOnUse">
<stop stop-color="white" stop-opacity="0.01"/>
<stop offset="0.07" stop-color="white" stop-opacity="0.22"/>
<stop offset="0.16" stop-color="white" stop-opacity="0.45"/>
<stop offset="0.25" stop-color="white" stop-opacity="0.65"/>
<stop offset="0.33" stop-color="white" stop-opacity="0.8"/>
<stop offset="0.4" stop-color="white" stop-opacity="0.91"/>
<stop offset="0.46" stop-color="white" stop-opacity="0.98"/>
<stop offset="0.51" stop-color="white"/>
</linearGradient>
<linearGradient id="paint26_linear_0_1" x1="1071.91" y1="515.864" x2="1070.12" y2="651.026" gradientUnits="userSpaceOnUse">
<stop stop-color="white" stop-opacity="0.01"/>
<stop offset="0.07" stop-color="white" stop-opacity="0.22"/>
<stop offset="0.16" stop-color="white" stop-opacity="0.45"/>
<stop offset="0.25" stop-color="white" stop-opacity="0.65"/>
<stop offset="0.33" stop-color="white" stop-opacity="0.8"/>
<stop offset="0.4" stop-color="white" stop-opacity="0.91"/>
<stop offset="0.46" stop-color="white" stop-opacity="0.98"/>
<stop offset="0.51" stop-color="white"/>
</linearGradient>
<linearGradient id="paint27_linear_0_1" x1="1071.91" y1="625.864" x2="1070.12" y2="761.026" gradientUnits="userSpaceOnUse">
<stop stop-color="white" stop-opacity="0.01"/>
<stop offset="0.07" stop-color="white" stop-opacity="0.22"/>
<stop offset="0.16" stop-color="white" stop-opacity="0.45"/>
<stop offset="0.25" stop-color="white" stop-opacity="0.65"/>
<stop offset="0.33" stop-color="white" stop-opacity="0.8"/>
<stop offset="0.4" stop-color="white" stop-opacity="0.91"/>
<stop offset="0.46" stop-color="white" stop-opacity="0.98"/>
<stop offset="0.51" stop-color="white"/>
</linearGradient>
<linearGradient id="paint28_linear_0_1" x1="708.068" y1="551.281" x2="708.051" y2="569.481" gradientUnits="userSpaceOnUse">
<stop stop-color="white" stop-opacity="0.01"/>
<stop offset="0.07" stop-color="white" stop-opacity="0.22"/>
<stop offset="0.16" stop-color="white" stop-opacity="0.45"/>
<stop offset="0.25" stop-color="white" stop-opacity="0.65"/>
<stop offset="0.33" stop-color="white" stop-opacity="0.8"/>
<stop offset="0.4" stop-color="white" stop-opacity="0.91"/>
<stop offset="0.46" stop-color="white" stop-opacity="0.98"/>
<stop offset="0.51" stop-color="white"/>
</linearGradient>
<linearGradient id="paint29_linear_0_1" x1="627.368" y1="604.052" x2="740.799" y2="514.635" gradientUnits="userSpaceOnUse">
<stop stop-color="#010101" stop-opacity="0.01"/>
<stop offset="0.95" stop-color="#010101"/>
</linearGradient>
<linearGradient id="paint30_linear_0_1" x1="677.207" y1="623.988" x2="838.483" y2="498.867" gradientUnits="userSpaceOnUse">
<stop stop-color="#010101" stop-opacity="0.01"/>
<stop offset="0.95" stop-color="#010101"/>
</linearGradient>
<linearGradient id="paint31_linear_0_1" x1="782.151" y1="682.751" x2="1038.32" y2="460.028" gradientUnits="userSpaceOnUse">
<stop stop-color="#010101" stop-opacity="0.01"/>
<stop offset="0.95" stop-color="#010101"/>
</linearGradient>
<linearGradient id="paint32_linear_0_1" x1="890.91" y1="751.865" x2="1266.59" y2="433.45" gradientUnits="userSpaceOnUse">
<stop stop-color="#010101" stop-opacity="0.01"/>
<stop offset="0.36" stop-color="#010101" stop-opacity="0.36"/>
<stop offset="0.95" stop-color="#010101"/>
</linearGradient>
<linearGradient id="paint33_linear_0_1" x1="739.169" y1="514.751" x2="922.108" y2="383.322" gradientUnits="userSpaceOnUse">
<stop stop-color="white" stop-opacity="0.01"/>
<stop offset="0.07" stop-color="white" stop-opacity="0.22"/>
<stop offset="0.16" stop-color="white" stop-opacity="0.45"/>
<stop offset="0.25" stop-color="white" stop-opacity="0.65"/>
<stop offset="0.33" stop-color="white" stop-opacity="0.8"/>
<stop offset="0.4" stop-color="white" stop-opacity="0.91"/>
<stop offset="0.46" stop-color="white" stop-opacity="0.98"/>
<stop offset="0.51" stop-color="white"/>
</linearGradient>
<linearGradient id="paint34_linear_0_1" x1="752.782" y1="512.517" x2="868.64" y2="416.658" gradientUnits="userSpaceOnUse">
<stop stop-color="white" stop-opacity="0.01"/>
<stop offset="0.07" stop-color="white" stop-opacity="0.22"/>
<stop offset="0.16" stop-color="white" stop-opacity="0.45"/>
<stop offset="0.25" stop-color="white" stop-opacity="0.65"/>
<stop offset="0.33" stop-color="white" stop-opacity="0.8"/>
<stop offset="0.4" stop-color="white" stop-opacity="0.91"/>
<stop offset="0.46" stop-color="white" stop-opacity="0.98"/>
<stop offset="0.51" stop-color="white"/>
</linearGradient>
<linearGradient id="paint35_linear_0_1" x1="618.369" y1="678.745" x2="656.554" y2="678.767" gradientUnits="userSpaceOnUse">
<stop stop-color="white" stop-opacity="0.01"/>
<stop offset="0.07" stop-color="white" stop-opacity="0.22"/>
<stop offset="0.16" stop-color="white" stop-opacity="0.45"/>
<stop offset="0.25" stop-color="white" stop-opacity="0.65"/>
<stop offset="0.33" stop-color="white" stop-opacity="0.8"/>
<stop offset="0.4" stop-color="white" stop-opacity="0.91"/>
<stop offset="0.46" stop-color="white" stop-opacity="0.98"/>
<stop offset="0.51" stop-color="white"/>
</linearGradient>
<linearGradient id="paint36_linear_0_1" x1="545.077" y1="581.2" x2="556.728" y2="619.932" gradientUnits="userSpaceOnUse">
<stop stop-color="#010101" stop-opacity="0.01"/>
<stop offset="0.95" stop-color="#010101"/>
</linearGradient>
<linearGradient id="paint37_linear_0_1" x1="569.875" y1="729.933" x2="670.777" y2="731.976" gradientUnits="userSpaceOnUse">
<stop stop-color="#010101" stop-opacity="0.01"/>
<stop offset="0.95" stop-color="#010101"/>
</linearGradient>
<linearGradient id="paint38_linear_0_1" x1="972.646" y1="887.512" x2="876.553" y2="722.732" gradientUnits="userSpaceOnUse">
<stop stop-color="#010101" stop-opacity="0.01"/>
<stop offset="0.95" stop-color="#010101"/>
</linearGradient>
<linearGradient id="paint39_linear_0_1" x1="973.669" y1="425.892" x2="800.783" y2="430.761" gradientUnits="userSpaceOnUse">
<stop stop-color="#010101" stop-opacity="0.01"/>
<stop offset="0.95" stop-color="#010101"/>
</linearGradient>
</defs>
</svg>
